<?xml version="1.0" encoding="UTF-8"?><svg xmlns="http://www.w3.org/2000/svg" xmlns:xlink="http://www.w3.org/1999/xlink" viewBox="0 0 1080 1080"><defs><style>.uuid-596c9a87-cf2f-430c-aa58-edb369e4a019{fill:#492513;}.uuid-56c44fcc-33f4-4342-a1e2-40e3e85e45e5{fill:none;stroke:#fff1e4;stroke-miterlimit:10;stroke-width:73px;}</style><symbol id="uuid-42b6c404-bd6e-4dbc-88e5-d56cb7e90d63" viewBox="0 0 1080 1080"><path class="uuid-596c9a87-cf2f-430c-aa58-edb369e4a019" d="M0,300.58v478.83c0,158.2,118.12,300.59,300.58,300.59h478.83c182.46,0,300.58-142.38,300.58-300.59v-478.83C1080,142.38,961.88,0,779.42,0h-478.83C118.12,0,0,142.38,0,300.58Z"/></symbol></defs><g id="uuid-f61cc77a-8a3a-4fe8-ba3d-c68511eeecda"><use width="1080" height="1080" transform="translate(.32 1080) scale(1 -1)" xlink:href="#uuid-42b6c404-bd6e-4dbc-88e5-d56cb7e90d63"/></g><g id="uuid-4dd1f040-e0f7-440b-b262-486c5147c24d"><path class="uuid-56c44fcc-33f4-4342-a1e2-40e3e85e45e5" d="M144.19,854.13c197.49,0,333.55-113.21,333.55-306.28S342.14,230.98,144.65,230.98"/><path class="uuid-56c44fcc-33f4-4342-a1e2-40e3e85e45e5" d="M936,851.24c-197.49,0-333.55-113.21-333.55-306.28s135.59-316.87,333.08-316.87"/><path class="uuid-56c44fcc-33f4-4342-a1e2-40e3e85e45e5" d="M854.17,935.57c0-197.49-113.21-333.55-306.28-333.55s-316.87,135.59-316.87,333.08"/><path class="uuid-56c44fcc-33f4-4342-a1e2-40e3e85e45e5" d="M851.28,143.76c0,197.49-113.21,333.55-306.28,333.55S228.13,341.71,228.13,144.22"/></g></svg>